<svg xmlns="http://www.w3.org/2000/svg" viewBox="0 0 1440 600" fill="none" preserveAspectRatio="xMidYMid slice" aria-hidden="true">
  <g stroke="currentColor" stroke-width="1" fill="none" opacity="0.55">
    <path d="M0 520 C 180 500, 340 540, 520 500 S 860 460, 1040 500 S 1280 540, 1440 500" />
    <path d="M0 470 C 200 440, 380 490, 560 450 S 900 410, 1080 460 S 1300 490, 1440 450" />
    <path d="M0 420 C 220 380, 420 440, 600 400 S 940 360, 1120 410 S 1320 440, 1440 400" />
    <path d="M0 370 C 240 330, 460 390, 640 350 S 980 310, 1160 360 S 1340 390, 1440 350" />
    <path d="M0 320 C 260 280, 500 340, 680 300 S 1020 260, 1200 310 S 1360 340, 1440 300" />
    <path d="M0 270 C 280 240, 540 290, 720 250 S 1060 210, 1240 260 S 1380 290, 1440 250" />
    <path d="M0 220 C 300 200, 580 240, 760 200 S 1100 160, 1280 210 S 1400 240, 1440 200" />
    <path d="M0 170 C 320 160, 620 190, 800 150 S 1140 110, 1320 160 S 1420 190, 1440 150" />
    <path d="M0 120 C 340 120, 660 140, 840 100 S 1180 60, 1360 110 S 1430 140, 1440 100" />
    <path d="M0 70 C 360 80, 700 90, 880 50 S 1220 10, 1400 60 S 1435 90, 1440 50" />
  </g>
  <g stroke="currentColor" stroke-width="1" fill="none" opacity="0.35">
    <path d="M0 560 C 200 540, 400 580, 600 540 S 940 500, 1120 540 S 1320 580, 1440 540" />
    <path d="M0 600 C 220 580, 440 600, 640 580 S 980 560, 1160 580 S 1340 600, 1440 580" />
  </g>
</svg>
